<svg width="1146" height="190" viewBox="0 0 1146 190" fill="none" xmlns="http://www.w3.org/2000/svg">
<path d="M246.345 40.6207L213.343 122.19H292.162L260.122 40.6207H246.345ZM221.353 4.25862H286.395L361.689 185.414H319.396L307.862 157.897H198.605L187.07 185.414H144.136L221.353 4.25862Z" fill="#001D4B"></path>
<path d="M374.588 4.25862H414.318V71.0862H465.903L510.439 4.25862H556.577L499.866 88.1207L560.742 185.414H513.323L466.864 108.431H414.318V185.414H374.588V4.25862Z" fill="#001D4B"></path>
<path d="M565.002 4.25862H749.234V40.9483H677.143V185.414H637.093V40.9483H565.002V4.25862Z" fill="#001D4B"></path>
<path d="M809.865 51.431C798.758 62.1322 793.204 76.6552 793.204 95C793.204 113.345 798.758 127.977 809.865 138.897C821.186 149.598 835.39 154.948 852.479 154.948C869.567 154.948 883.665 149.598 894.772 138.897C906.093 127.977 911.753 113.345 911.753 95C911.753 76.6552 906.093 62.1322 894.772 51.431C883.665 40.5115 869.567 35.0517 852.479 35.0517C835.39 35.0517 821.186 40.5115 809.865 51.431ZM922.647 26.5345C942.085 44.2241 951.803 67.046 951.803 95C951.803 122.954 942.085 145.776 922.647 163.466C903.423 181.155 880.033 190 852.479 190C824.924 190 801.428 181.155 781.99 163.466C762.766 145.776 753.154 122.954 753.154 95C753.154 67.046 762.766 44.2241 781.99 26.5345C801.428 8.84483 824.924 0 852.479 0C880.033 0 903.423 8.84483 922.647 26.5345Z" fill="#001D4B"></path>
<path d="M968.497 4.25862H1072.95C1094.09 4.25862 1111.5 10.9195 1125.17 24.2414C1139.06 37.3448 1146 54.3793 1146 75.3448C1146 102.862 1134.57 122.954 1111.72 135.621L1138.95 185.414H1095.38L1074.55 145.121H1008.55V185.414H968.497V4.25862ZM1008.55 41.6035V107.776H1071.35C1081.81 107.776 1090.14 104.937 1096.34 99.2586C1102.75 93.5805 1105.95 85.6092 1105.95 75.3448C1105.95 65.0805 1102.75 56.8908 1096.34 50.7759C1090.14 44.6609 1081.81 41.6035 1071.35 41.6035H1008.55Z" fill="#001D4B"></path>
<path d="M163.039 4.75H0V185.25H40.1691V40.375H163.039V4.75Z" fill="#001D4B"></path>
<path d="M61.435 78.375H137.047V114H61.435V78.375Z" fill="#001D4B"></path>
</svg>