<svg width="96" height="16" viewBox="0 0 96 16" fill="none" xmlns="http://www.w3.org/2000/svg">

<g id="&#208;&#147;&#208;&#190;&#208;&#187;&#208;&#190;&#208;&#178;&#208;&#189;&#208;&#176;">

<g id="Faktor Full Logo Navi">
<path d="M20.6362 3.42069L17.8717 10.2897H24.4743L21.7903 3.42069H20.6362ZM18.5427 0.358621H23.9912L30.2986 15.6138H26.7557L25.7895 13.2965H16.637L15.6708 15.6138H12.0742L18.5427 0.358621Z" fill="#001D4B"/>
<path d="M31.3791 0.358621H34.7073V5.98621H39.0285L42.7593 0.358621H46.6242L41.8736 7.42069L46.9732 15.6138H43.0008L39.109 9.13103H34.7073V15.6138H31.3791V0.358621Z" fill="#001D4B"/>
<path d="M47.33 0.358621H62.763V3.44828H56.724V15.6138H53.369V3.44828H47.33V0.358621Z" fill="#001D4B"/>
<path d="M67.8421 4.33103C66.9116 5.23218 66.4464 6.45517 66.4464 8C66.4464 9.54483 66.9116 10.777 67.8421 11.6966C68.7904 12.5977 69.9804 13.0483 71.4118 13.0483C72.8433 13.0483 74.0243 12.5977 74.9547 11.6966C75.9031 10.777 76.3772 9.54483 76.3772 8C76.3772 6.45517 75.9031 5.23218 74.9547 4.33103C74.0243 3.41149 72.8433 2.95172 71.4118 2.95172C69.9804 2.95172 68.7904 3.41149 67.8421 4.33103ZM77.2898 2.23448C78.9181 3.72414 79.7322 5.64598 79.7322 8C79.7322 10.354 78.9181 12.2759 77.2898 13.7655C75.6794 15.2552 73.7201 16 71.4118 16C69.1036 16 67.1353 15.2552 65.507 13.7655C63.8966 12.2759 63.0914 10.354 63.0914 8C63.0914 5.64598 63.8966 3.72414 65.507 2.23448C67.1353 0.744828 69.1036 0 71.4118 0C73.7201 0 75.6794 0.744828 77.2898 2.23448Z" fill="#001D4B"/>
<path d="M81.1306 0.358621H89.8805C91.6519 0.358621 93.1102 0.91954 94.2554 2.04138C95.4185 3.14483 96 4.57931 96 6.34483C96 8.66207 95.0427 10.354 93.1281 11.4207L95.4095 15.6138H91.7593L90.0147 12.2207H84.4856V15.6138H81.1306V0.358621ZM84.4856 3.50345V9.07586H89.7463C90.623 9.07586 91.3209 8.83678 91.8398 8.35862C92.3766 7.88046 92.645 7.2092 92.645 6.34483C92.645 5.48046 92.3766 4.7908 91.8398 4.27586C91.3209 3.76092 90.623 3.50345 89.7463 3.50345H84.4856Z" fill="#001D4B"/>
<path d="M13.6577 0.4H0V15.6H3.36495V3.4H13.6577V0.4Z" fill="#001D4B"/>
<path d="M5.14639 6.6H11.4804V9.6H5.14639V6.6Z" fill="#001D4B"/>
</g>
</g>
</svg>
