<svg width="32" height="32" viewBox="0 0 32 32" fill="none" xmlns="http://www.w3.org/2000/svg">

<g id="&#208;&#147;&#208;&#190;&#208;&#187;&#208;&#190;&#208;&#178;&#208;&#189;&#208;&#176;">

<g id="Fav 32px">
<path id="Vector" d="M19.7526 8C18.9133 8 18.1112 8.18855 17.3685 8.56044C16.8629 8.81354 16.3985 9.14982 16 9.54881C15.6015 9.14982 15.1371 8.81354 14.6315 8.56044C13.8888 8.18855 13.0867 8 12.2474 8C9.35399 8 7 10.3069 7 13.1424C7 15.1508 8.08234 17.2838 10.2169 19.4824C11.9992 21.318 14.1812 22.8482 15.6979 23.8087L16 24L16.3021 23.8087C17.8188 22.8482 20.0008 21.318 21.7831 19.4824C23.9177 17.2838 25 15.1508 25 13.1424C25 10.3069 22.646 8 19.7526 8ZM20.9765 18.7302C19.3837 20.3707 17.4435 21.7654 16 22.6988C14.5565 21.7654 12.6163 20.3707 11.0235 18.7302C9.09249 16.7414 8.1134 14.8614 8.1134 13.1424C8.1134 10.9085 9.96792 9.09112 12.2474 9.09112C13.5598 9.09112 14.7653 9.68189 15.5549 10.7119L16 11.2926L16.4451 10.7119C17.2347 9.68189 18.4402 9.09112 19.7526 9.09112C22.0321 9.09112 23.8866 10.9085 23.8866 13.1424C23.8866 14.8614 22.9075 16.7414 20.9765 18.7302Z" fill="#001D4B"/>
</g>
</g>
</svg>
