<svg width="18" height="18" viewBox="0 0 18 18" fill="none" xmlns="http://www.w3.org/2000/svg">

<g id="&#208;&#147;&#208;&#190;&#208;&#187;&#208;&#190;&#208;&#178;&#208;&#189;&#208;&#176;">

<g id="Fav 32px">
<g id="phone-call 1" clip-path="url(#clip0_2002_2)">
<g id="Group">
<g id="Group_2">
<path id="Vector" d="M14.2258 11.1504C13.8573 10.7667 13.4128 10.5615 12.9417 10.5615C12.4744 10.5615 12.0261 10.7629 11.6424 11.1466L10.4419 12.3433C10.3432 12.2901 10.2444 12.2407 10.1494 12.1913C10.0127 12.1229 9.88348 12.0583 9.77331 11.9899C8.6488 11.2757 7.62686 10.345 6.64671 9.14068C6.17184 8.54043 5.85272 8.03516 5.62098 7.52229C5.9325 7.23737 6.22122 6.94104 6.50235 6.65612C6.60873 6.54974 6.7151 6.43957 6.82147 6.3332C7.61927 5.5354 7.61927 4.50207 6.82147 3.70428L5.78434 2.66714C5.66657 2.54937 5.545 2.4278 5.43103 2.30624C5.20309 2.0707 4.96375 1.82756 4.71681 1.59962C4.34831 1.23491 3.90762 1.04116 3.44414 1.04116C2.98066 1.04116 2.53237 1.23491 2.15247 1.59962C2.14867 1.60342 2.14867 1.60342 2.14487 1.60721L0.853204 2.91028C0.366929 3.39656 0.0896004 3.9892 0.028816 4.67683C-0.0623606 5.78614 0.264355 6.81947 0.515091 7.4957C1.13053 9.15587 2.0499 10.6945 3.42134 12.3433C5.08532 14.3301 7.0874 15.8991 9.37441 17.0047C10.2482 17.4187 11.4145 17.9088 12.7176 17.9924C12.7973 17.9962 12.8809 18 12.9569 18C13.8345 18 14.5715 17.6847 15.1489 17.0578C15.1527 17.0502 15.1603 17.0464 15.1641 17.0388C15.3617 16.7995 15.5896 16.583 15.829 16.3512C15.9923 16.1955 16.1595 16.0321 16.3228 15.8611C16.6989 15.4699 16.8965 15.014 16.8965 14.5467C16.8965 14.0756 16.6951 13.6235 16.3114 13.2436L14.2258 11.1504ZM15.5858 15.1507C15.582 15.1507 15.582 15.1545 15.5858 15.1507C15.4377 15.3103 15.2857 15.4547 15.1223 15.6142C14.8754 15.8498 14.6247 16.0967 14.3891 16.374C14.0054 16.7843 13.5533 16.9781 12.9607 16.9781C12.9037 16.9781 12.8429 16.9781 12.7859 16.9743C11.6576 16.9021 10.6091 16.4614 9.8227 16.0853C7.67245 15.0444 5.78434 13.5665 4.21534 11.6936C2.91987 10.1322 2.0537 8.68859 1.48004 7.13859C1.12673 6.19264 0.997567 5.45563 1.05455 4.7604C1.09254 4.31592 1.2635 3.94741 1.57882 3.63209L2.87428 2.33663C3.06044 2.16187 3.25799 2.0669 3.45174 2.0669C3.69107 2.0669 3.88482 2.21126 4.00639 2.33283C4.01019 2.33663 4.01399 2.34043 4.01779 2.34423C4.24953 2.56077 4.46987 2.78491 4.70161 3.02425C4.81938 3.14582 4.94095 3.26739 5.06252 3.39276L6.09966 4.42989C6.50235 4.83259 6.50235 5.20489 6.09966 5.60759C5.98948 5.71776 5.88311 5.82793 5.77294 5.9343C5.45382 6.26102 5.1499 6.56494 4.81938 6.86126C4.81179 6.86886 4.80419 6.87266 4.80039 6.88026C4.47367 7.20697 4.53446 7.52609 4.60284 7.74264C4.60664 7.75403 4.61044 7.76543 4.61424 7.77683C4.88397 8.43026 5.26387 9.0457 5.84132 9.77891L5.84512 9.78271C6.89365 11.0744 7.99917 12.0811 9.21865 12.8523C9.37441 12.9511 9.53397 13.0309 9.68593 13.1069C9.8227 13.1752 9.95187 13.2398 10.062 13.3082C10.0772 13.3158 10.0924 13.3272 10.1076 13.3348C10.2368 13.3994 10.3584 13.4298 10.4837 13.4298C10.799 13.4298 10.9966 13.2322 11.0612 13.1676L12.3604 11.8684C12.4896 11.7392 12.6948 11.5834 12.9341 11.5834C13.1696 11.5834 13.3634 11.7316 13.4812 11.8608C13.485 11.8646 13.485 11.8646 13.4888 11.8684L15.582 13.9616C15.9733 14.3491 15.9733 14.748 15.5858 15.1507Z" fill="#001D4B"/>
<path id="Vector_2" d="M9.72806 4.28173C10.7234 4.44888 11.6276 4.91996 12.3494 5.64178C13.0712 6.36359 13.5385 7.26776 13.7094 8.2631C13.7512 8.51384 13.9678 8.68859 14.2147 8.68859C14.2451 8.68859 14.2717 8.6848 14.3021 8.681C14.5832 8.63541 14.7694 8.36948 14.7238 8.08835C14.5186 6.88406 13.9488 5.78614 13.0788 4.91616C12.2088 4.04619 11.1109 3.47633 9.90662 3.27119C9.62549 3.2256 9.36336 3.41175 9.31397 3.68908C9.26458 3.96641 9.44694 4.23614 9.72806 4.28173Z" fill="#001D4B"/>
<path id="Vector_3" d="M17.9795 7.94019C17.6414 5.9571 16.7068 4.15256 15.2708 2.71653C13.8348 1.2805 12.0302 0.34594 10.0471 0.00782658C9.7698 -0.0415607 9.50767 0.14839 9.45828 0.425719C9.41269 0.706847 9.59884 0.968979 9.87997 1.01837C11.6503 1.31849 13.2649 2.15807 14.549 3.43834C15.833 4.72241 16.6688 6.337 16.9689 8.10734C17.0107 8.35808 17.2273 8.53284 17.4742 8.53284C17.5046 8.53284 17.5312 8.52904 17.5616 8.52524C17.8389 8.48345 18.0289 8.21752 17.9795 7.94019Z" fill="#001D4B"/>
</g>
</g>
</g>
</g>
</g>
<defs>
<clipPath id="clip0_2002_2">
<rect width="18" height="18" fill="white"/>
</clipPath>
</defs>
</svg>
