<svg width="60" height="19" viewBox="0 0 60 19" fill="none" xmlns="http://www.w3.org/2000/svg">

<g id="&#208;&#147;&#208;&#190;&#208;&#187;&#208;&#190;&#208;&#178;&#208;&#189;&#208;&#176;">

<g id="Info">
<g id="Vector">
<path d="M25.6765 9.99878C25.6765 12.7323 23.4536 14.7466 20.7255 14.7466C17.9974 14.7466 15.7744 12.7323 15.7744 9.99878C15.7744 7.24597 17.9974 5.25093 20.7255 5.25093C23.4536 5.25093 25.6765 7.24597 25.6765 9.99878ZM23.5092 9.99878C23.5092 8.29058 22.2208 7.12182 20.7255 7.12182C19.2302 7.12182 17.9418 8.29058 17.9418 9.99878C17.9418 11.6899 19.2302 12.8757 20.7255 12.8757C22.2208 12.8757 23.5092 11.6877 23.5092 9.99878Z" fill="#EA4335"/>
<path d="M36.3574 9.99878C36.3574 12.7323 34.1344 14.7466 31.4063 14.7466C28.6783 14.7466 26.4553 12.7323 26.4553 9.99878C26.4553 7.24811 28.6783 5.25093 31.4063 5.25093C34.1344 5.25093 36.3574 7.24597 36.3574 9.99878ZM34.1901 9.99878C34.1901 8.29058 32.9017 7.12182 31.4063 7.12182C29.911 7.12182 28.6226 8.29058 28.6226 9.99878C28.6226 11.6899 29.911 12.8757 31.4063 12.8757C32.9017 12.8757 34.1901 11.6877 34.1901 9.99878Z" fill="#FBBC05"/>
<path d="M46.5933 5.53777V14.0616C46.5933 17.5679 44.4437 19 41.9026 19C39.5105 19 38.0708 17.4609 37.5279 16.2022L39.4148 15.4466C39.7508 16.2194 40.5741 17.1313 41.9003 17.1313C43.527 17.1313 44.535 16.1658 44.535 14.3485V13.6656H44.4593C43.9742 14.2414 43.0396 14.7445 41.8603 14.7445C39.3926 14.7445 37.1318 12.6767 37.1318 10.0159C37.1318 7.33588 39.3926 5.25093 41.8603 5.25093C43.0374 5.25093 43.972 5.75397 44.4593 6.31267H44.535V5.53991H46.5933V5.53777ZM44.6885 10.0159C44.6885 8.3441 43.5292 7.12182 42.0539 7.12182C40.5586 7.12182 39.3058 8.3441 39.3058 10.0159C39.3058 11.6706 40.5586 12.8757 42.0539 12.8757C43.5292 12.8757 44.6885 11.6706 44.6885 10.0159Z" fill="#4285F4"/>
<path d="M49.9867 0.541607V14.4555H47.8728V0.541607H49.9867Z" fill="#34A853"/>
<path d="M58.2243 11.5612L59.9065 12.64C59.3636 13.4128 58.0552 14.7442 55.7944 14.7442C52.9907 14.7442 50.8968 12.6593 50.8968 9.99639C50.8968 7.17294 53.0085 5.24854 55.5519 5.24854C58.113 5.24854 59.3658 7.20933 59.7753 8.26893L60 8.80836L53.4023 11.437C53.9074 12.3896 54.6929 12.8755 55.7944 12.8755C56.8981 12.8755 57.6636 12.3532 58.2243 11.5612ZM53.0463 9.85297L57.4566 8.09126C57.2141 7.49831 56.4842 7.08518 55.6253 7.08518C54.5238 7.08518 52.9907 8.02062 53.0463 9.85297Z" fill="#EA4335"/>
<path d="M7.77257 8.76361V6.74931H14.8286C14.8976 7.10037 14.9332 7.51564 14.9332 7.96517C14.9332 9.47643 14.5037 11.3452 13.1197 12.6766C11.7734 14.0252 10.0534 14.7444 7.77479 14.7444C3.55139 14.7444 0 11.4351 0 7.37222C0 3.30937 3.55139 0 7.77479 0C10.1112 0 11.7757 0.881927 13.0262 2.03143L11.5487 3.45279C10.652 2.64364 9.43701 2.0143 7.77257 2.0143C4.68846 2.0143 2.27636 4.40535 2.27636 7.37222C2.27636 10.3391 4.68846 12.7301 7.77257 12.7301C9.77301 12.7301 10.9123 11.9574 11.6422 11.2553C12.2341 10.6859 12.6235 9.87244 12.777 8.76147L7.77257 8.76361Z" fill="#4285F4"/>
</g>
</g>
</g>
</svg>
